<mxfile host="app.diagrams.net" modified="2022-08-06T12:20:17.927Z" agent="5.0 (Macintosh; Intel Mac OS X 10_15_7) AppleWebKit/537.36 (KHTML, like Gecko) Chrome/103.0.5060.114 Safari/537.36 OPR/89.0.4447.48" etag="Cysxxjv4jNXUARV02_6J" version="20.0.1" type="github">
  <diagram id="FBIAM-FaBgOBLF57n8cL" name="Page-1">
    <mxGraphModel dx="1223" dy="882" grid="1" gridSize="10" guides="1" tooltips="1" connect="1" arrows="1" fold="1" page="1" pageScale="1" pageWidth="827" pageHeight="1169" math="0" shadow="0">
      <root>
        <mxCell id="0" />
        <mxCell id="1" parent="0" />
        <mxCell id="2KZErt7hrod6eKUe5e92-1" value="" style="endArrow=classic;startArrow=classic;html=1;rounded=0;sketch=1;fillColor=#dae8fc;strokeColor=#6c8ebf;" edge="1" parent="1">
          <mxGeometry width="50" height="50" relative="1" as="geometry">
            <mxPoint x="400" y="520" as="sourcePoint" />
            <mxPoint x="400" y="120" as="targetPoint" />
          </mxGeometry>
        </mxCell>
        <mxCell id="2KZErt7hrod6eKUe5e92-2" value="" style="endArrow=classic;startArrow=classic;html=1;rounded=0;sketch=1;fillColor=#dae8fc;strokeColor=#6c8ebf;" edge="1" parent="1">
          <mxGeometry width="50" height="50" relative="1" as="geometry">
            <mxPoint x="200" y="320" as="sourcePoint" />
            <mxPoint x="600" y="320" as="targetPoint" />
          </mxGeometry>
        </mxCell>
        <mxCell id="2KZErt7hrod6eKUe5e92-3" value="&lt;font style=&quot;font-size: 18px;&quot;&gt;Stark&lt;/font&gt;" style="text;html=1;strokeColor=none;fillColor=none;align=center;verticalAlign=middle;whiteSpace=wrap;rounded=0;fontStyle=2;fontColor=#FF6666;fontFamily=Comic Sans MS;" vertex="1" parent="1">
          <mxGeometry x="370" y="80" width="60" height="30" as="geometry" />
        </mxCell>
        <mxCell id="2KZErt7hrod6eKUe5e92-4" value="&lt;font style=&quot;font-size: 18px;&quot;&gt;Schwach&lt;/font&gt;" style="text;html=1;strokeColor=none;fillColor=none;align=center;verticalAlign=middle;whiteSpace=wrap;rounded=0;fontStyle=2;fontColor=#FF6666;fontFamily=Comic Sans MS;" vertex="1" parent="1">
          <mxGeometry x="370" y="520" width="60" height="30" as="geometry" />
        </mxCell>
        <mxCell id="2KZErt7hrod6eKUe5e92-5" value="&lt;font style=&quot;font-size: 18px;&quot;&gt;Dynamisch&lt;/font&gt;" style="text;html=1;strokeColor=none;fillColor=none;align=center;verticalAlign=middle;whiteSpace=wrap;rounded=0;fontStyle=2;fontColor=#FF6666;fontFamily=Comic Sans MS;" vertex="1" parent="1">
          <mxGeometry x="97" y="303" width="90" height="30" as="geometry" />
        </mxCell>
        <mxCell id="2KZErt7hrod6eKUe5e92-6" value="&lt;font style=&quot;font-size: 18px;&quot;&gt;Statisch&lt;/font&gt;" style="text;html=1;strokeColor=none;fillColor=none;align=center;verticalAlign=middle;whiteSpace=wrap;rounded=0;fontStyle=2;fontColor=#FF6666;fontFamily=Comic Sans MS;" vertex="1" parent="1">
          <mxGeometry x="611" y="303" width="90" height="30" as="geometry" />
        </mxCell>
        <mxCell id="2KZErt7hrod6eKUe5e92-7" value="&lt;font style=&quot;font-size: 18px;&quot;&gt;Python&lt;/font&gt;" style="text;html=1;strokeColor=none;fillColor=none;align=center;verticalAlign=middle;whiteSpace=wrap;rounded=0;fontStyle=2;fontColor=#6666FF;fontFamily=Comic Sans MS;" vertex="1" parent="1">
          <mxGeometry x="290" y="220" width="90" height="30" as="geometry" />
        </mxCell>
        <mxCell id="2KZErt7hrod6eKUe5e92-8" value="&lt;font style=&quot;font-size: 18px;&quot;&gt;Ruby&lt;/font&gt;&lt;span style=&quot;color: rgba(0, 0, 0, 0); font-family: monospace; font-size: 0px; font-style: normal; text-align: start;&quot;&gt;%3CmxGraphModel%3E%3Croot%3E%3CmxCell%20id%3D%220%22%2F%3E%3CmxCell%20id%3D%221%22%20parent%3D%220%22%2F%3E%3CmxCell%20id%3D%222%22%20value%3D%22%26lt%3Bfont%20style%3D%26quot%3Bfont-size%3A%2018px%3B%26quot%3B%26gt%3BPython%26lt%3B%2Ffont%26gt%3B%22%20style%3D%22text%3Bhtml%3D1%3BstrokeColor%3Dnone%3BfillColor%3Dnone%3Balign%3Dcenter%3BverticalAlign%3Dmiddle%3BwhiteSpace%3Dwrap%3Brounded%3D0%3BfontStyle%3D2%3BfontColor%3D%236666FF%3BfontFamily%3DComic%20Sans%20MS%3B%22%20vertex%3D%221%22%20parent%3D%221%22%3E%3CmxGeometry%20x%3D%22290%22%20y%3D%22230%22%20width%3D%2290%22%20height%3D%2230%22%20as%3D%22geometry%22%2F%3E%3C%2FmxCell%3E%3C%2Froot%3E%3C%2FmxGraphModel%3E&lt;/span&gt;" style="text;html=1;strokeColor=none;fillColor=none;align=center;verticalAlign=middle;whiteSpace=wrap;rounded=0;fontStyle=2;fontColor=#6666FF;fontFamily=Comic Sans MS;" vertex="1" parent="1">
          <mxGeometry x="240" y="273" width="90" height="30" as="geometry" />
        </mxCell>
        <mxCell id="2KZErt7hrod6eKUe5e92-9" value="&lt;span style=&quot;font-size: 18px;&quot;&gt;Erlang&lt;/span&gt;" style="text;html=1;strokeColor=none;fillColor=none;align=center;verticalAlign=middle;whiteSpace=wrap;rounded=0;fontStyle=2;fontColor=#6666FF;fontFamily=Comic Sans MS;" vertex="1" parent="1">
          <mxGeometry x="220" y="170" width="90" height="30" as="geometry" />
        </mxCell>
        <mxCell id="2KZErt7hrod6eKUe5e92-10" value="&lt;span style=&quot;font-size: 18px;&quot;&gt;C#&lt;/span&gt;" style="text;html=1;strokeColor=none;fillColor=none;align=center;verticalAlign=middle;whiteSpace=wrap;rounded=0;fontStyle=2;fontColor=#6666FF;fontFamily=Comic Sans MS;" vertex="1" parent="1">
          <mxGeometry x="414" y="150" width="90" height="30" as="geometry" />
        </mxCell>
        <mxCell id="2KZErt7hrod6eKUe5e92-11" value="&lt;span style=&quot;font-size: 18px;&quot;&gt;Java&lt;/span&gt;&lt;span style=&quot;color: rgba(0, 0, 0, 0); font-family: monospace; font-size: 0px; font-style: normal; text-align: start;&quot;&gt;%3CmxGraphModel%3E%3Croot%3E%3CmxCell%20id%3D%220%22%2F%3E%3CmxCell%20id%3D%221%22%20parent%3D%220%22%2F%3E%3CmxCell%20id%3D%222%22%20value%3D%22%26lt%3Bspan%20style%3D%26quot%3Bfont-size%3A%2018px%3B%26quot%3B%26gt%3BC%23%26lt%3B%2Fspan%26gt%3B%22%20style%3D%22text%3Bhtml%3D1%3BstrokeColor%3Dnone%3BfillColor%3Dnone%3Balign%3Dcenter%3BverticalAlign%3Dmiddle%3BwhiteSpace%3Dwrap%3Brounded%3D0%3BfontStyle%3D2%3BfontColor%3D%236666FF%3BfontFamily%3DComic%20Sans%20MS%3B%22%20vertex%3D%221%22%20parent%3D%221%22%3E%3CmxGeometry%20x%3D%22414%22%20y%3D%22150%22%20width%3D%2290%22%20height%3D%2230%22%20as%3D%22geometry%22%2F%3E%3C%2FmxCell%3E%3C%2Froot%3E%3C%2FmxGraphModel%3E&lt;/span&gt;" style="text;html=1;strokeColor=none;fillColor=none;align=center;verticalAlign=middle;whiteSpace=wrap;rounded=0;fontStyle=2;fontColor=#6666FF;fontFamily=Comic Sans MS;" vertex="1" parent="1">
          <mxGeometry x="480" y="180" width="90" height="30" as="geometry" />
        </mxCell>
        <mxCell id="2KZErt7hrod6eKUe5e92-12" value="&lt;span style=&quot;font-size: 18px;&quot;&gt;Haskell&lt;/span&gt;&lt;span style=&quot;color: rgba(0, 0, 0, 0); font-family: monospace; font-size: 0px; font-style: normal; text-align: start;&quot;&gt;%3CmxGraphModel%3E%3Croot%3E%3CmxCell%20id%3D%220%22%2F%3E%3CmxCell%20id%3D%221%22%20parent%3D%220%22%2F%3E%3CmxCell%20id%3D%222%22%20value%3D%22%26lt%3Bspan%20style%3D%26quot%3Bfont-size%3A%2018px%3B%26quot%3B%26gt%3BJava%26lt%3B%2Fspan%26gt%3B%26lt%3Bspan%20style%3D%26quot%3Bcolor%3A%20rgba(0%2C%200%2C%200%2C%200)%3B%20font-family%3A%20monospace%3B%20font-size%3A%200px%3B%20font-style%3A%20normal%3B%20text-align%3A%20start%3B%26quot%3B%26gt%3B%253CmxGraphModel%253E%253Croot%253E%253CmxCell%2520id%253D%25220%2522%252F%253E%253CmxCell%2520id%253D%25221%2522%2520parent%253D%25220%2522%252F%253E%253CmxCell%2520id%253D%25222%2522%2520value%253D%2522%2526lt%253Bspan%2520style%253D%2526quot%253Bfont-size%253A%252018px%253B%2526quot%253B%2526gt%253BC%2523%2526lt%253B%252Fspan%2526gt%253B%2522%2520style%253D%2522text%253Bhtml%253D1%253BstrokeColor%253Dnone%253BfillColor%253Dnone%253Balign%253Dcenter%253BverticalAlign%253Dmiddle%253BwhiteSpace%253Dwrap%253Brounded%253D0%253BfontStyle%253D2%253BfontColor%253D%25236666FF%253BfontFamily%253DComic%2520Sans%2520MS%253B%2522%2520vertex%253D%25221%2522%2520parent%253D%25221%2522%253E%253CmxGeometry%2520x%253D%2522414%2522%2520y%253D%2522150%2522%2520width%253D%252290%2522%2520height%253D%252230%2522%2520as%253D%2522geometry%2522%252F%253E%253C%252FmxCell%253E%253C%252Froot%253E%253C%252FmxGraphModel%253E%26lt%3B%2Fspan%26gt%3B%22%20style%3D%22text%3Bhtml%3D1%3BstrokeColor%3Dnone%3BfillColor%3Dnone%3Balign%3Dcenter%3BverticalAlign%3Dmiddle%3BwhiteSpace%3Dwrap%3Brounded%3D0%3BfontStyle%3D2%3BfontColor%3D%236666FF%3BfontFamily%3DComic%20Sans%20MS%3B%22%20vertex%3D%221%22%20parent%3D%221%22%3E%3CmxGeometry%20x%3D%22480%22%20y%3D%22180%22%20width%3D%2290%22%20height%3D%2230%22%20as%3D%22geometry%22%2F%3E%3C%2FmxCell%3E%3C%2Froot%3E%3C%2FmxGraphModel%3E&lt;/span&gt;" style="text;html=1;strokeColor=none;fillColor=none;align=center;verticalAlign=middle;whiteSpace=wrap;rounded=0;fontStyle=2;fontColor=#6666FF;fontFamily=Comic Sans MS;" vertex="1" parent="1">
          <mxGeometry x="440" y="228" width="90" height="30" as="geometry" />
        </mxCell>
        <mxCell id="2KZErt7hrod6eKUe5e92-13" value="&lt;span style=&quot;font-size: 18px;&quot;&gt;Scala&lt;/span&gt;" style="text;html=1;strokeColor=none;fillColor=none;align=center;verticalAlign=middle;whiteSpace=wrap;rounded=0;fontStyle=2;fontColor=#6666FF;fontFamily=Comic Sans MS;" vertex="1" parent="1">
          <mxGeometry x="414" y="273" width="90" height="30" as="geometry" />
        </mxCell>
        <mxCell id="2KZErt7hrod6eKUe5e92-14" value="&lt;span style=&quot;font-size: 18px;&quot;&gt;C++&lt;/span&gt;" style="text;html=1;strokeColor=none;fillColor=none;align=center;verticalAlign=middle;whiteSpace=wrap;rounded=0;fontStyle=2;fontColor=#6666FF;fontFamily=Comic Sans MS;" vertex="1" parent="1">
          <mxGeometry x="440" y="350" width="90" height="30" as="geometry" />
        </mxCell>
        <mxCell id="2KZErt7hrod6eKUe5e92-15" value="&lt;span style=&quot;font-size: 18px;&quot;&gt;C&lt;/span&gt;" style="text;html=1;strokeColor=none;fillColor=none;align=center;verticalAlign=middle;whiteSpace=wrap;rounded=0;fontStyle=2;fontColor=#6666FF;fontFamily=Comic Sans MS;" vertex="1" parent="1">
          <mxGeometry x="480" y="410" width="90" height="30" as="geometry" />
        </mxCell>
        <mxCell id="2KZErt7hrod6eKUe5e92-16" value="&lt;span style=&quot;font-size: 18px;&quot;&gt;Perl&lt;/span&gt;" style="text;html=1;strokeColor=none;fillColor=none;align=center;verticalAlign=middle;whiteSpace=wrap;rounded=0;fontStyle=2;fontColor=#6666FF;fontFamily=Comic Sans MS;" vertex="1" parent="1">
          <mxGeometry x="270" y="340" width="90" height="30" as="geometry" />
        </mxCell>
        <mxCell id="2KZErt7hrod6eKUe5e92-17" value="&lt;span style=&quot;font-size: 18px;&quot;&gt;PHP&lt;/span&gt;" style="text;html=1;strokeColor=none;fillColor=none;align=center;verticalAlign=middle;whiteSpace=wrap;rounded=0;fontStyle=2;fontColor=#6666FF;fontFamily=Comic Sans MS;" vertex="1" parent="1">
          <mxGeometry x="230" y="380" width="90" height="30" as="geometry" />
        </mxCell>
        <mxCell id="2KZErt7hrod6eKUe5e92-18" value="&lt;span style=&quot;font-size: 18px;&quot;&gt;Visual Basic&lt;/span&gt;" style="text;html=1;strokeColor=none;fillColor=none;align=center;verticalAlign=middle;whiteSpace=wrap;rounded=0;fontStyle=2;fontColor=#6666FF;fontFamily=Comic Sans MS;" vertex="1" parent="1">
          <mxGeometry x="210" y="429" width="120" height="30" as="geometry" />
        </mxCell>
        <mxCell id="2KZErt7hrod6eKUe5e92-19" value="&lt;span style=&quot;font-size: 18px;&quot;&gt;Javascript&lt;/span&gt;" style="text;html=1;strokeColor=none;fillColor=none;align=center;verticalAlign=middle;whiteSpace=wrap;rounded=0;fontStyle=2;fontColor=#6666FF;fontFamily=Comic Sans MS;" vertex="1" parent="1">
          <mxGeometry x="290" y="470" width="90" height="30" as="geometry" />
        </mxCell>
      </root>
    </mxGraphModel>
  </diagram>
</mxfile>
